#include "hUGEDriver.h"
#include <stddef.h>

static const unsigned char order_cnt = 8;

static const unsigned char P0[] = {
    DN(___,0,0x000),
    DN(___,0,0x000),
    DN(___,0,0x000),
    DN(___,0,0x000),
    DN(___,0,0x000),
    DN(___,0,0x000),
    DN(___,0,0x000),
    DN(___,0,0x000),
    DN(___,0,0x000),
    DN(___,0,0x000),
    DN(___,0,0x000),
    DN(___,0,0x000),
    DN(___,0,0x000),
    DN(___,0,0x000),
    DN(___,0,0x000),
    DN(___,0,0x000),
    DN(___,0,0x000),
    DN(___,0,0x000),
    DN(___,0,0x000),
    DN(___,0,0x000),
    DN(___,0,0x000),
    DN(___,0,0x000),
    DN(___,0,0x000),
    DN(___,0,0x000),
    DN(___,0,0x000),
    DN(___,0,0x000),
    DN(___,0,0x000),
    DN(___,0,0x000),
    DN(___,0,0x000),
    DN(___,0,0x000),
    DN(___,0,0x000),
    DN(___,0,0x000),
    DN(G_6,1,0xC07),
    DN(G_6,1,0xC03),
    DN(G_6,1,0xC07),
    DN(G_6,1,0xC03),
    DN(G_6,1,0xC05),
    DN(G_6,1,0xC01),
    DN(G_6,1,0xC04),
    DN(G_6,1,0xC00),
    DN(G_6,1,0xC00),
    DN(___,0,0x000),
    DN(___,0,0x000),
    DN(___,0,0x000),
    DN(___,0,0x000),
    DN(___,0,0x000),
    DN(F_5,2,0xC08),
    DN(F_5,2,0xC03),
    DN(G_6,2,0xC08),
    DN(G_6,2,0xC03),
    DN(G_6,2,0xC08),
    DN(G_6,2,0xC03),
    DN(G_5,1,0xC05),
    DN(G_5,1,0xC00),
    DN(G_6,2,0xC03),
    DN(G_6,2,0xC00),
    DN(F_4,2,0xC08),
    DN(F_4,2,0xC03),
    DN(F_4,2,0xC00),
    DN(___,0,0x000),
    DN(F_3,2,0xC08),
    DN(F_3,2,0xC03),
    DN(F_3,2,0xC00),
    DN(___,0,0x000),
};
static const unsigned char P1[] = {
    DN(G_4,1,0xC06),
    DN(G_4,1,0xC04),
    DN(G_4,1,0xC00),
    DN(___,0,0x000),
    DN(G_4,1,0xC06),
    DN(G_4,1,0xC04),
    DN(G_4,1,0xC00),
    DN(___,0,0x000),
    DN(F_4,1,0xC06),
    DN(F_4,1,0xC04),
    DN(G_4,1,0xC06),
    DN(G_4,1,0xC04),
    DN(G_4,1,0xC00),
    DN(___,0,0x000),
    DN(F_4,1,0xC06),
    DN(F_4,1,0xC04),
    DN(G_4,1,0xC07),
    DN(G_4,1,0xC03),
    DN(G_4,1,0xC00),
    DN(___,0,0x000),
    DN(G_4,1,0xC07),
    DN(G_4,1,0xC03),
    DN(G_4,1,0xC00),
    DN(___,0,0x000),
    DN(As4,1,0xC06),
    DN(As4,1,0xC04),
    DN(A_4,1,0xC06),
    DN(A_4,1,0xC04),
    DN(A_4,1,0xC00),
    DN(___,0,0x000),
    DN(___,0,0x000),
    DN(___,0,0x000),
    DN(G_5,1,0xC0B),
    DN(G_5,1,0xC07),
    DN(G_5,1,0xC03),
    DN(G_5,1,0xC00),
    DN(___,0,0x000),
    DN(___,0,0x000),
    DN(___,0,0x000),
    DN(___,0,0x000),
    DN(___,0,0x000),
    DN(___,0,0x000),
    DN(___,0,0x000),
    DN(___,0,0x000),
    DN(___,0,0x000),
    DN(___,0,0x000),
    DN(F_4,1,0xC0B),
    DN(F_4,1,0xC07),
    DN(G_6,1,0xC0B),
    DN(G_6,1,0xC07),
    DN(G_6,1,0xC03),
    DN(G_6,1,0xC00),
    DN(___,0,0x000),
    DN(___,0,0x000),
    DN(___,0,0x000),
    DN(___,0,0x000),
    DN(F_5,1,0xC0B),
    DN(F_5,1,0xC07),
    DN(F_5,1,0xC03),
    DN(F_5,1,0xC00),
    DN(F_4,1,0xC0B),
    DN(F_4,1,0xC07),
    DN(F_4,1,0xC03),
    DN(F_4,1,0xC00),
};
static const unsigned char P2[] = {
    DN(G_5,8,0xC0F),
    DN(___,0,0x000),
    DN(G_5,8,0xC00),
    DN(___,0,0x000),
    DN(G_5,8,0xC0F),
    DN(___,0,0x000),
    DN(G_5,8,0xC00),
    DN(___,0,0x000),
    DN(F_5,8,0xC0F),
    DN(___,0,0x000),
    DN(G_5,8,0xC0F),
    DN(___,0,0x000),
    DN(G_5,8,0xC00),
    DN(___,0,0x000),
    DN(F_5,8,0xC0F),
    DN(___,0,0x000),
    DN(G_4,8,0xC0F),
    DN(___,0,0x000),
    DN(G_4,8,0xC00),
    DN(___,0,0x000),
    DN(G_4,8,0xC0F),
    DN(___,0,0x000),
    DN(G_4,8,0xC00),
    DN(___,0,0x000),
    DN(As5,8,0xC0F),
    DN(___,0,0x000),
    DN(A_5,8,0xC0F),
    DN(___,0,0x000),
    DN(A_5,8,0xC00),
    DN(___,0,0x000),
    DN(___,0,0x000),
    DN(___,0,0x000),
    DN(G_5,8,0xC0F),
    DN(___,0,0x000),
    DN(G_5,8,0xC00),
    DN(___,0,0x000),
    DN(G_5,8,0xC0F),
    DN(___,0,0x000),
    DN(G_5,8,0xC00),
    DN(___,0,0x000),
    DN(F_4,8,0xC0F),
    DN(___,0,0x000),
    DN(G_4,8,0xC0F),
    DN(___,0,0x000),
    DN(G_4,8,0xC00),
    DN(___,0,0x000),
    DN(F_4,8,0xC0F),
    DN(___,0,0x000),
    DN(G_6,8,0xC0F),
    DN(___,0,0x000),
    DN(G_6,8,0xC00),
    DN(___,0,0x000),
    DN(G_4,8,0xC0F),
    DN(___,0,0x000),
    DN(G_4,8,0xC00),
    DN(___,0,0x000),
    DN(As4,8,0xC0F),
    DN(___,0,0x000),
    DN(A_4,8,0xC0F),
    DN(___,0,0x000),
    DN(A_4,8,0xC00),
    DN(___,0,0x000),
    DN(___,0,0x000),
    DN(___,0,0x000),
};
static const unsigned char P3[] = {
    DN(___,0,0xF06),
    DN(___,0,0x000),
    DN(___,0,0x000),
    DN(___,0,0x000),
    DN(___,0,0x000),
    DN(___,0,0x000),
    DN(___,0,0x000),
    DN(___,0,0x000),
    DN(___,0,0x000),
    DN(___,0,0x000),
    DN(___,0,0x000),
    DN(___,0,0x000),
    DN(___,0,0x000),
    DN(___,0,0x000),
    DN(___,0,0x000),
    DN(___,0,0x000),
    DN(___,0,0x000),
    DN(___,0,0x000),
    DN(___,0,0x000),
    DN(___,0,0x000),
    DN(___,0,0x000),
    DN(___,0,0x000),
    DN(___,0,0x000),
    DN(___,0,0x000),
    DN(___,0,0x000),
    DN(___,0,0x000),
    DN(___,0,0x000),
    DN(___,0,0x000),
    DN(___,0,0x000),
    DN(___,0,0x000),
    DN(___,0,0x000),
    DN(___,0,0x000),
    DN(C_5,15,0xE01),
    DN(___,0,0x000),
    DN(C_5,15,0xE01),
    DN(___,0,0x000),
    DN(C_5,15,0xE02),
    DN(___,0,0x000),
    DN(___,0,0x000),
    DN(___,0,0x000),
    DN(C_5,15,0xE01),
    DN(___,0,0x000),
    DN(___,0,0x000),
    DN(___,0,0x000),
    DN(C_5,15,0xE02),
    DN(___,0,0x000),
    DN(C_5,15,0xE01),
    DN(___,0,0x000),
    DN(C_5,15,0xE01),
    DN(___,0,0x000),
    DN(C_5,15,0xE01),
    DN(___,0,0x000),
    DN(C_5,15,0xE02),
    DN(___,0,0x000),
    DN(___,0,0x000),
    DN(___,0,0x000),
    DN(C_5,15,0xE01),
    DN(___,0,0x000),
    DN(___,0,0x000),
    DN(___,0,0x000),
    DN(C_5,15,0xE01),
    DN(___,0,0x000),
    DN(___,0,0x000),
    DN(___,0,0x000),
};
static const unsigned char P10[] = {
    DN(C_5,2,0xC0F),
    DN(C_5,2,0xC0B),
    DN(C_5,2,0xC0F),
    DN(C_5,2,0xC0B),
    DN(C_5,2,0xC07),
    DN(C_5,2,0xC0B),
    DN(C_5,2,0xC0F),
    DN(C_5,2,0xC0B),
    DN(C_5,2,0xC0F),
    DN(C_5,2,0xC0B),
    DN(C_5,2,0xC0F),
    DN(C_5,2,0xC0B),
    DN(C_5,2,0xC0F),
    DN(C_5,2,0xC0B),
    DN(C_5,2,0xC0F),
    DN(C_5,2,0xC0B),
    DN(F_4,2,0xC0F),
    DN(F_4,2,0xC0B),
    DN(F_4,2,0xC0F),
    DN(F_4,2,0xC0B),
    DN(F_4,2,0xC0F),
    DN(F_4,2,0xC0B),
    DN(F_4,2,0xC0F),
    DN(F_4,2,0xC0B),
    DN(F_4,2,0xC07),
    DN(F_4,2,0xC03),
    DN(F_4,2,0xC0F),
    DN(F_4,2,0xC0B),
    DN(F_4,2,0xC07),
    DN(F_4,2,0xC03),
    DN(F_4,2,0xC00),
    DN(___,0,0x000),
    DN(A_5,2,0xC0F),
    DN(A_5,2,0xC0B),
    DN(A_5,2,0xC0F),
    DN(A_5,2,0xC0B),
    DN(A_5,2,0xC0F),
    DN(A_5,2,0xC0B),
    DN(A_5,2,0xC0F),
    DN(A_5,2,0xC0B),
    DN(A_5,2,0xC0F),
    DN(A_5,2,0xC0B),
    DN(A_5,2,0xC0F),
    DN(A_5,2,0xC0B),
    DN(As4,2,0xC0F),
    DN(As4,2,0xC0B),
    DN(A_4,2,0xC0F),
    DN(A_4,2,0xC0B),
    DN(As4,2,0xC0F),
    DN(As4,2,0xC0B),
    DN(A_4,2,0xC0F),
    DN(A_4,2,0xC0B),
    DN(A_4,2,0xC07),
    DN(A_4,2,0xC03),
    DN(F_4,2,0xC0F),
    DN(F_4,2,0xC0B),
    DN(F_4,2,0xC07),
    DN(F_4,2,0xC03),
    DN(F_4,2,0xC00),
    DN(___,0,0x000),
    DN(___,0,0x000),
    DN(___,0,0x000),
    DN(___,0,0x000),
    DN(___,0,0x000),
};
static const unsigned char P11[] = {
    DN(C_4,1,0xC07),
    DN(C_4,1,0xC03),
    DN(C_4,1,0xC07),
    DN(C_4,1,0xC03),
    DN(C_4,1,0xC07),
    DN(C_4,1,0xC03),
    DN(C_4,1,0xC07),
    DN(C_4,1,0xC03),
    DN(C_4,1,0xC07),
    DN(C_4,1,0xC03),
    DN(C_4,1,0xC07),
    DN(C_4,1,0xC03),
    DN(C_4,1,0xC07),
    DN(C_4,1,0xC03),
    DN(C_4,1,0xC07),
    DN(C_4,1,0xC03),
    DN(F_3,1,0xC07),
    DN(F_3,1,0xC03),
    DN(F_3,1,0xC07),
    DN(F_3,1,0xC03),
    DN(F_3,1,0xC07),
    DN(F_3,1,0xC03),
    DN(F_3,1,0xC07),
    DN(F_3,1,0xC03),
    DN(F_3,1,0xC07),
    DN(F_3,1,0xC03),
    DN(F_3,1,0xC07),
    DN(F_3,1,0xC03),
    DN(F_3,1,0xC07),
    DN(F_3,1,0xC03),
    DN(F_3,1,0xC07),
    DN(F_3,1,0xC03),
    DN(A_4,1,0xC07),
    DN(A_4,1,0xC03),
    DN(A_4,1,0xC07),
    DN(A_4,1,0xC03),
    DN(A_4,1,0xC07),
    DN(A_4,1,0xC03),
    DN(A_4,1,0xC07),
    DN(A_4,1,0xC03),
    DN(A_4,1,0xC07),
    DN(A_4,1,0xC03),
    DN(A_3,1,0xC07),
    DN(A_3,1,0xC03),
    DN(F_3,1,0xC07),
    DN(F_3,1,0xC03),
    DN(F_3,1,0xC07),
    DN(F_3,1,0xC03),
    DN(C_4,1,0xC07),
    DN(C_4,1,0xC03),
    DN(C_4,1,0xC07),
    DN(C_4,1,0xC03),
    DN(C_4,1,0xC07),
    DN(C_4,1,0xC03),
    DN(C_4,1,0xC07),
    DN(C_4,1,0xC03),
    DN(C_4,1,0xC07),
    DN(C_4,1,0xC03),
    DN(C_4,1,0xC07),
    DN(C_4,1,0xC03),
    DN(C_4,1,0xC07),
    DN(C_4,1,0xC03),
    DN(C_4,1,0xC07),
    DN(C_4,1,0xC03),
};
static const unsigned char P12[] = {
    DN(G_4,8,0xC0F),
    DN(___,0,0x000),
    DN(G_4,8,0xC00),
    DN(___,0,0x000),
    DN(G_4,8,0xC0F),
    DN(___,0,0x000),
    DN(G_4,8,0xC00),
    DN(___,0,0x000),
    DN(G_4,8,0xC0F),
    DN(___,0,0x000),
    DN(G_4,8,0xC00),
    DN(___,0,0x000),
    DN(G_4,8,0xC0F),
    DN(___,0,0x000),
    DN(G_4,8,0xC00),
    DN(___,0,0x000),
    DN(F_4,8,0xC0F),
    DN(F_4,8,0xC00),
    DN(F_4,8,0xC0F),
    DN(F_4,8,0xC00),
    DN(F_4,8,0xC0F),
    DN(F_4,8,0xC00),
    DN(F_4,8,0xC0F),
    DN(F_4,8,0xC00),
    DN(___,0,0x000),
    DN(___,0,0x000),
    DN(F_4,8,0xC0F),
    DN(F_4,8,0xC00),
    DN(___,0,0x000),
    DN(___,0,0x000),
    DN(___,0,0x000),
    DN(___,0,0x000),
    DN(C_4,8,0xC0F),
    DN(___,0,0x000),
    DN(C_4,8,0xC00),
    DN(___,0,0x000),
    DN(C_4,8,0xC0F),
    DN(___,0,0x000),
    DN(C_4,8,0xC00),
    DN(___,0,0x000),
    DN(C_4,8,0xC0F),
    DN(___,0,0x000),
    DN(C_4,8,0xC00),
    DN(___,0,0x000),
    DN(C_4,8,0xC0F),
    DN(___,0,0x000),
    DN(C_4,8,0xC00),
    DN(___,0,0x000),
    DN(C_4,8,0xC0F),
    DN(C_4,8,0xC00),
    DN(C_4,8,0xC0F),
    DN(C_4,8,0xC00),
    DN(C_4,8,0xC0F),
    DN(C_4,8,0xC00),
    DN(C_4,8,0xC0F),
    DN(C_4,8,0xC00),
    DN(___,0,0x000),
    DN(___,0,0x000),
    DN(C_4,8,0xC0F),
    DN(C_4,8,0xC00),
    DN(___,0,0x000),
    DN(___,0,0x000),
    DN(___,0,0x000),
    DN(___,0,0x000),
};
static const unsigned char P13[] = {
    DN(B_4,15,0xE01),
    DN(___,0,0x000),
    DN(___,0,0x000),
    DN(___,0,0x000),
    DN(B_4,15,0xE01),
    DN(___,0,0x000),
    DN(___,0,0x000),
    DN(___,0,0x000),
    DN(B_4,15,0xE01),
    DN(___,0,0x000),
    DN(___,0,0x000),
    DN(___,0,0x000),
    DN(B_4,15,0xE02),
    DN(___,0,0x000),
    DN(C_5,15,0xE01),
    DN(___,0,0x000),
    DN(C_5,15,0xE01),
    DN(___,0,0x000),
    DN(C_5,15,0xE01),
    DN(___,0,0x000),
    DN(C_5,15,0xE01),
    DN(___,0,0x000),
    DN(C_5,15,0xE01),
    DN(C_5,15,0xE02),
    DN(___,0,0x000),
    DN(___,0,0x000),
    DN(C_5,15,0xE01),
    DN(___,0,0x000),
    DN(C_5,15,0xE02),
    DN(___,0,0x000),
    DN(C_5,15,0xE01),
    DN(___,0,0x000),
    DN(C_5,15,0xE01),
    DN(___,0,0x000),
    DN(___,0,0x000),
    DN(___,0,0x000),
    DN(C_5,15,0xE01),
    DN(___,0,0x000),
    DN(___,0,0x000),
    DN(___,0,0x000),
    DN(C_5,15,0xE01),
    DN(___,0,0x000),
    DN(___,0,0x000),
    DN(___,0,0x000),
    DN(B_4,15,0xE02),
    DN(___,0,0x000),
    DN(C_5,15,0xE01),
    DN(C_5,15,0xE01),
    DN(C_5,15,0xE01),
    DN(___,0,0x000),
    DN(C_5,15,0xE01),
    DN(___,0,0x000),
    DN(C_5,15,0xE01),
    DN(___,0,0x000),
    DN(C_5,15,0xE01),
    DN(___,0,0x000),
    DN(C_5,15,0xE02),
    DN(___,0,0x000),
    DN(C_5,15,0xE01),
    DN(___,0,0x000),
    DN(C_5,15,0xE03),
    DN(___,0,0x000),
    DN(___,0,0x000),
    DN(___,0,0x000),
};
static const unsigned char P20[] = {
    DN(F_4,2,0xC0F),
    DN(F_4,2,0xC0B),
    DN(F_4,2,0xC0F),
    DN(F_4,2,0xC0B),
    DN(F_4,2,0xC07),
    DN(F_4,2,0xC03),
    DN(F_4,2,0xC0F),
    DN(F_4,2,0xC0B),
    DN(F_4,2,0xC0F),
    DN(F_4,2,0xC0B),
    DN(F_4,2,0xC0F),
    DN(F_4,2,0xC0B),
    DN(F_4,2,0xC07),
    DN(F_4,2,0xC03),
    DN(F_4,2,0xC0F),
    DN(F_4,2,0xC0B),
    DN(F_4,2,0xC0F),
    DN(F_4,2,0xC0B),
    DN(F_4,2,0xC0F),
    DN(F_4,2,0xC0B),
    DN(F_4,2,0xC0F),
    DN(F_4,2,0xC0B),
    DN(F_4,2,0xC0F),
    DN(F_4,2,0xC0B),
    DN(F_4,2,0xC07),
    DN(F_4,2,0xC03),
    DN(F_4,2,0xC0F),
    DN(F_4,2,0xC0B),
    DN(F_4,2,0xC07),
    DN(F_4,2,0xC03),
    DN(F_4,2,0xC00),
    DN(___,0,0x000),
    DN(C_6,15,0xC0F),
    DN(C_6,15,0xC0B),
    DN(C_6,15,0xC0F),
    DN(C_6,15,0xC0B),
    DN(C_6,15,0xC07),
    DN(C_6,15,0xC03),
    DN(C_6,15,0xC0F),
    DN(C_6,15,0xC0B),
    DN(C_6,15,0xC0F),
    DN(C_6,15,0xC0B),
    DN(C_6,15,0xC0F),
    DN(C_6,15,0xC0B),
    DN(C_6,15,0xC07),
    DN(C_6,15,0xC03),
    DN(E_5,15,0xC0F),
    DN(E_5,15,0xC0B),
    DN(D_5,15,0xC0F),
    DN(D_5,15,0xC0B),
    DN(D_5,15,0xC0F),
    DN(D_5,15,0xC0B),
    DN(D_5,15,0xC0F),
    DN(D_5,15,0xC0B),
    DN(D_5,15,0xC0F),
    DN(D_5,15,0xC0B),
    DN(D_5,15,0xC07),
    DN(D_5,15,0xC03),
    DN(D_5,15,0xC0F),
    DN(D_5,15,0xC0B),
    DN(D_5,15,0xC07),
    DN(D_5,15,0xC03),
    DN(D_5,15,0xC00),
    DN(___,0,0x000),
};
static const unsigned char P21[] = {
    DN(F_3,1,0xC07),
    DN(F_3,1,0xC03),
    DN(F_3,1,0xC07),
    DN(F_3,1,0xC03),
    DN(F_3,1,0xC07),
    DN(F_3,1,0xC03),
    DN(F_3,1,0xC07),
    DN(F_3,1,0xC03),
    DN(F_3,1,0xC07),
    DN(F_3,1,0xC03),
    DN(F_3,1,0xC07),
    DN(F_3,1,0xC03),
    DN(F_3,1,0xC07),
    DN(F_3,1,0xC03),
    DN(F_3,1,0xC07),
    DN(F_3,1,0xC03),
    DN(F_3,1,0xC07),
    DN(F_3,1,0xC03),
    DN(F_3,1,0xC07),
    DN(F_3,1,0xC03),
    DN(F_3,1,0xC07),
    DN(F_3,1,0xC03),
    DN(F_3,1,0xC07),
    DN(F_3,1,0xC03),
    DN(F_3,1,0xC07),
    DN(F_3,1,0xC03),
    DN(F_3,1,0xC07),
    DN(F_3,1,0xC03),
    DN(F_3,1,0xC07),
    DN(F_3,1,0xC03),
    DN(F_3,1,0xC07),
    DN(F_3,1,0xC03),
    DN(C_5,15,0xC07),
    DN(C_5,15,0xC03),
    DN(C_5,15,0xC07),
    DN(C_5,15,0xC03),
    DN(C_5,15,0xC07),
    DN(C_5,15,0xC03),
    DN(C_5,15,0xC07),
    DN(C_5,15,0xC03),
    DN(C_5,15,0xC07),
    DN(C_5,15,0xC03),
    DN(C_5,15,0xC07),
    DN(C_5,0,0xC03),
    DN(C_5,15,0xC07),
    DN(C_5,0,0xC03),
    DN(C_5,15,0xC07),
    DN(C_5,0,0xC03),
    DN(D_4,15,0xC07),
    DN(D_4,15,0xC03),
    DN(D_4,15,0xC07),
    DN(D_4,15,0xC03),
    DN(D_4,15,0xC07),
    DN(D_4,15,0xC03),
    DN(D_4,15,0xC07),
    DN(D_4,15,0xC03),
    DN(D_4,15,0xC07),
    DN(D_4,15,0xC03),
    DN(D_4,15,0xC07),
    DN(D_4,15,0xC03),
    DN(D_4,15,0xC07),
    DN(D_4,15,0xC03),
    DN(D_4,15,0xC07),
    DN(___,0,0x000),
};
static const unsigned char P22[] = {
    DN(F_4,8,0xC0F),
    DN(___,0,0x000),
    DN(F_4,8,0xC00),
    DN(___,0,0x000),
    DN(F_4,8,0xC0F),
    DN(___,0,0x000),
    DN(F_4,8,0xC00),
    DN(___,0,0x000),
    DN(F_4,8,0xC0F),
    DN(___,0,0x000),
    DN(F_4,8,0xC00),
    DN(___,0,0x000),
    DN(G_4,8,0xC0F),
    DN(___,0,0x000),
    DN(G_4,8,0xC00),
    DN(___,0,0x000),
    DN(F_4,8,0xC0F),
    DN(F_4,8,0xC00),
    DN(___,0,0x000),
    DN(___,0,0x000),
    DN(F_4,8,0xC0F),
    DN(F_4,8,0xC00),
    DN(F_4,8,0xC0F),
    DN(F_4,8,0xC00),
    DN(___,0,0x000),
    DN(___,0,0x000),
    DN(F_4,8,0xC0F),
    DN(F_4,8,0xC00),
    DN(___,0,0x000),
    DN(___,0,0x000),
    DN(___,0,0x000),
    DN(___,0,0x000),
    DN(C_5,15,0xC0F),
    DN(___,0,0x000),
    DN(C_5,15,0xC00),
    DN(___,0,0x000),
    DN(C_5,15,0xC0F),
    DN(___,0,0x000),
    DN(C_5,15,0xC00),
    DN(___,0,0x000),
    DN(C_5,15,0xC0F),
    DN(___,0,0x000),
    DN(C_5,15,0xC00),
    DN(___,0,0x000),
    DN(C_5,15,0xC0F),
    DN(___,0,0x000),
    DN(C_5,15,0xC00),
    DN(___,0,0x000),
    DN(C_5,15,0xC0F),
    DN(C_5,15,0xC00),
    DN(___,0,0x000),
    DN(___,0,0x000),
    DN(E_5,15,0xC0F),
    DN(E_5,15,0xC00),
    DN(E_5,15,0xC0F),
    DN(E_5,15,0xC00),
    DN(___,0,0x000),
    DN(___,0,0x000),
    DN(E_5,15,0xC0F),
    DN(E_5,15,0xC00),
    DN(___,0,0x000),
    DN(___,0,0x000),
    DN(___,0,0x000),
    DN(___,0,0x000),
};
static const unsigned char P23[] = {
    DN(B_4,15,0xE01),
    DN(___,0,0x000),
    DN(___,0,0x000),
    DN(___,0,0x000),
    DN(B_4,15,0xE01),
    DN(___,0,0x000),
    DN(___,0,0x000),
    DN(___,0,0x000),
    DN(B_4,15,0xE01),
    DN(___,0,0x000),
    DN(___,0,0x000),
    DN(___,0,0x000),
    DN(B_4,15,0xE02),
    DN(___,0,0x000),
    DN(___,0,0x000),
    DN(C_5,15,0xE02),
    DN(C_5,15,0xE01),
    DN(___,0,0x000),
    DN(C_5,15,0xE01),
    DN(___,0,0x000),
    DN(C_5,15,0xE01),
    DN(___,0,0x000),
    DN(C_5,15,0xE01),
    DN(___,0,0x000),
    DN(___,0,0x000),
    DN(___,0,0x000),
    DN(C_5,15,0xE01),
    DN(___,0,0x000),
    DN(C_5,15,0xE02),
    DN(___,0,0x000),
    DN(C_5,15,0xE01),
    DN(___,0,0x000),
    DN(B_4,15,0xE01),
    DN(___,0,0x000),
    DN(___,0,0x000),
    DN(___,0,0x000),
    DN(B_4,15,0xE01),
    DN(___,0,0x000),
    DN(___,0,0x000),
    DN(___,0,0x000),
    DN(B_4,15,0xE01),
    DN(___,0,0x000),
    DN(___,0,0x000),
    DN(___,0,0x000),
    DN(B_4,15,0xE02),
    DN(___,0,0x000),
    DN(___,0,0x000),
    DN(Fs5,15,0xE02),
    DN(Fs5,15,0xE01),
    DN(___,0,0x000),
    DN(Fs5,15,0xE01),
    DN(___,0,0x000),
    DN(Fs5,15,0xE01),
    DN(___,0,0x000),
    DN(Fs5,15,0xE01),
    DN(___,0,0x000),
    DN(___,0,0x000),
    DN(___,0,0x000),
    DN(Fs5,15,0xE01),
    DN(___,0,0x000),
    DN(Fs5,15,0xE02),
    DN(___,0,0x000),
    DN(Fs5,15,0xE01),
    DN(___,0,0x000),
};
static const unsigned char P30[] = {
    DN(Ds5,2,0xC0F),
    DN(Ds5,2,0xC0B),
    DN(Ds5,2,0xC0F),
    DN(Ds5,2,0xC0B),
    DN(Ds5,2,0xC0F),
    DN(Ds5,2,0xC0B),
    DN(Ds5,2,0xC0F),
    DN(Ds5,2,0xC0B),
    DN(Ds5,2,0xC0F),
    DN(Ds5,2,0xC0B),
    DN(Ds5,2,0xC0F),
    DN(Ds5,2,0xC0B),
    DN(G_3,2,0xC0F),
    DN(G_3,2,0xC0B),
    DN(Cs4,2,0xC0F),
    DN(Cs4,2,0xC0B),
    DN(As4,2,0xC0F),
    DN(As4,2,0xC0B),
    DN(Cs4,2,0xC0F),
    DN(Cs4,2,0xC0B),
    DN(Cs4,2,0xC07),
    DN(Cs4,2,0xC03),
    DN(E_3,2,0xC0F),
    DN(E_3,2,0xC0B),
    DN(E_3,2,0xC07),
    DN(E_3,2,0xC03),
    DN(E_3,2,0xC00),
    DN(___,0,0x000),
    DN(___,0,0x000),
    DN(___,0,0x000),
    DN(___,0,0x000),
    DN(___,0,0x000),
    DN(As4,2,0xC0F),
    DN(As4,2,0xC0B),
    DN(G_6,15,0xC0F),
    DN(G_6,15,0xC0B),
    DN(G_6,15,0xC0F),
    DN(G_6,15,0xC0B),
    DN(G_6,15,0xC0F),
    DN(G_6,15,0xC0B),
    DN(G_6,15,0xC0F),
    DN(G_6,15,0xC0B),
    DN(G_6,15,0xC07),
    DN(G_6,15,0xC03),
    DN(C_5,2,0xC0F),
    DN(C_5,2,0xC0B),
    DN(As4,2,0xC0F),
    DN(As4,2,0xC0B),
    DN(C_5,2,0xC0F),
    DN(C_5,2,0xC0B),
    DN(Ds6,15,0xC0F),
    DN(Ds6,15,0xC0B),
    DN(Ds6,15,0xC07),
    DN(Ds6,15,0xC03),
    DN(Ds6,15,0xC00),
    DN(___,0,0x000),
    DN(C_5,2,0xC0F),
    DN(C_5,2,0xC0B),
    DN(Ds6,15,0xC0F),
    DN(Ds6,15,0xC0B),
    DN(Ds6,15,0xC07),
    DN(Ds6,15,0xC03),
    DN(Ds6,15,0xC00),
    DN(___,0,0x000),
};
static const unsigned char P31[] = {
    DN(Ds4,1,0xC07),
    DN(Ds4,1,0xC03),
    DN(Ds4,1,0xC07),
    DN(Ds4,1,0xC03),
    DN(Ds4,1,0xC07),
    DN(Ds4,1,0xC03),
    DN(Ds4,1,0xC07),
    DN(Ds4,1,0xC03),
    DN(Ds4,1,0xC07),
    DN(Ds4,1,0xC03),
    DN(Ds4,1,0xC07),
    DN(Ds4,1,0xC03),
    DN(Ds4,1,0xC07),
    DN(Ds4,1,0xC03),
    DN(Ds4,1,0xC07),
    DN(Ds4,1,0xC03),
    DN(E_3,1,0xC07),
    DN(E_3,1,0xC03),
    DN(E_3,1,0xC07),
    DN(E_3,1,0xC03),
    DN(E_3,1,0xC07),
    DN(E_3,1,0xC03),
    DN(E_3,1,0xC07),
    DN(E_3,1,0xC03),
    DN(E_3,1,0xC07),
    DN(E_3,1,0xC03),
    DN(E_3,1,0xC07),
    DN(E_3,1,0xC03),
    DN(E_3,1,0xC07),
    DN(E_3,1,0xC03),
    DN(E_3,1,0xC07),
    DN(E_3,1,0xC03),
    DN(___,0,0x000),
    DN(___,0,0x000),
    DN(E_6,15,0xC0F),
    DN(E_6,15,0xC07),
    DN(E_6,15,0xC03),
    DN(E_6,15,0xC00),
    DN(E_6,15,0xC0F),
    DN(E_6,15,0xC07),
    DN(E_6,15,0xC03),
    DN(E_6,15,0xC00),
    DN(C_4,15,0xC0F),
    DN(C_4,15,0xC07),
    DN(C_4,15,0xC03),
    DN(C_4,15,0xC00),
    DN(Ds4,1,0xC0F),
    DN(Ds4,1,0xC07),
    DN(F_4,1,0xC0F),
    DN(F_4,1,0xC07),
    DN(G_5,1,0xC0F),
    DN(G_5,1,0xC07),
    DN(Gs5,1,0xC0F),
    DN(Gs5,1,0xC07),
    DN(G_5,1,0xC0F),
    DN(G_5,1,0xC07),
    DN(F_5,1,0xC0F),
    DN(F_5,1,0xC07),
    DN(G_4,1,0xC0F),
    DN(G_4,1,0xC07),
    DN(G_4,1,0xC03),
    DN(G_4,1,0xC00),
    DN(___,0,0x000),
    DN(___,0,0x000),
};
static const unsigned char P32[] = {
    DN(Ds4,8,0xC0F),
    DN(___,0,0x000),
    DN(Ds4,8,0xC00),
    DN(___,0,0x000),
    DN(Ds4,8,0xC0F),
    DN(___,0,0x000),
    DN(Ds4,8,0xC00),
    DN(___,0,0x000),
    DN(Ds4,8,0xC0F),
    DN(___,0,0x000),
    DN(Ds4,8,0xC00),
    DN(___,0,0x000),
    DN(D_4,8,0xC0F),
    DN(D_4,8,0xC00),
    DN(D_4,8,0xC0F),
    DN(D_4,8,0xC00),
    DN(E_4,8,0xC0F),
    DN(E_4,8,0xC00),
    DN(E_4,8,0xC0F),
    DN(E_4,8,0xC00),
    DN(___,0,0x000),
    DN(___,0,0x000),
    DN(E_4,8,0xC0F),
    DN(E_4,8,0xC00),
    DN(___,0,0x000),
    DN(___,0,0x000),
    DN(E_4,8,0xC0F),
    DN(E_4,8,0xC00),
    DN(E_4,8,0xC0F),
    DN(E_4,8,0xC00),
    DN(E_4,8,0xC0F),
    DN(E_4,8,0xC00),
    DN(___,0,0x000),
    DN(___,0,0x000),
    DN(Gs5,15,0xC0F),
    DN(___,0,0x000),
    DN(___,0,0x000),
    DN(___,0,0x000),
    DN(___,0,0x000),
    DN(___,0,0x000),
    DN(___,0,0x000),
    DN(___,0,0x000),
    DN(Gs4,8,0xC07),
    DN(___,0,0x000),
    DN(___,0,0x000),
    DN(___,0,0x000),
    DN(Gs4,8,0xC03),
    DN(___,0,0x000),
    DN(___,0,0x000),
    DN(___,0,0x000),
    DN(G_4,8,0xC0F),
    DN(___,0,0x000),
    DN(___,0,0x000),
    DN(___,0,0x000),
    DN(___,0,0x000),
    DN(___,0,0x000),
    DN(___,0,0x000),
    DN(___,0,0x000),
    DN(G_4,8,0xC07),
    DN(___,0,0x000),
    DN(___,0,0x000),
    DN(___,0,0x000),
    DN(G_4,8,0xC03),
    DN(___,0,0x000),
};
static const unsigned char P33[] = {
    DN(C_5,15,0xE01),
    DN(___,0,0x000),
    DN(___,0,0x000),
    DN(___,0,0x000),
    DN(C_5,15,0xE01),
    DN(___,0,0x000),
    DN(___,0,0x000),
    DN(___,0,0x000),
    DN(C_5,15,0xE01),
    DN(___,0,0x000),
    DN(___,0,0x000),
    DN(___,0,0x000),
    DN(B_4,15,0xE03),
    DN(___,0,0x000),
    DN(___,0,0x000),
    DN(C_5,15,0xE01),
    DN(C_5,15,0xE01),
    DN(___,0,0x000),
    DN(C_5,15,0xE01),
    DN(___,0,0x000),
    DN(C_5,15,0xE01),
    DN(___,0,0x000),
    DN(C_5,15,0xE01),
    DN(___,0,0x000),
    DN(C_5,15,0xE02),
    DN(___,0,0x000),
    DN(C_5,15,0xE01),
    DN(___,0,0x000),
    DN(C_5,15,0xE03),
    DN(___,0,0x000),
    DN(C_5,15,0xE04),
    DN(___,0,0x000),
    DN(C_5,15,0xE01),
    DN(___,0,0x000),
    DN(C_5,15,0xE02),
    DN(___,0,0x000),
    DN(C_5,15,0xE02),
    DN(___,0,0x000),
    DN(C_5,15,0xE02),
    DN(___,0,0x000),
    DN(C_5,15,0xE02),
    DN(___,0,0x000),
    DN(C_5,15,0xE01),
    DN(___,0,0x000),
    DN(C_5,15,0xE01),
    DN(___,0,0x000),
    DN(C_5,15,0xE01),
    DN(___,0,0x000),
    DN(C_5,15,0xE02),
    DN(___,0,0x000),
    DN(C_5,15,0xE02),
    DN(___,0,0x000),
    DN(C_5,15,0xE02),
    DN(___,0,0x000),
    DN(C_5,15,0xE01),
    DN(___,0,0x000),
    DN(C_5,15,0xE01),
    DN(___,0,0x000),
    DN(C_5,15,0xE01),
    DN(___,0,0x000),
    DN(___,0,0x000),
    DN(___,0,0x000),
    DN(___,0,0x000),
    DN(___,0,0x000),
};

static const unsigned char* const order1[] = {P0,P10,P20,P30};
static const unsigned char* const order2[] = {P1,P11,P21,P31};
static const unsigned char* const order3[] = {P2,P12,P22,P32};
static const unsigned char* const order4[] = {P3,P13,P23,P33};

static const unsigned char duty_instruments[] = {
8,64,240,128,
8,128,240,128,
8,192,240,128,
8,0,240,128,
8,128,240,128,
8,128,240,128,
8,128,240,128,
8,128,240,128,
8,128,240,128,
8,128,240,128,
8,128,240,128,
8,128,240,128,
8,128,240,128,
8,128,240,128,
8,128,240,128,
};
static const unsigned char wave_instruments[] = {
0,32,0,128,
0,32,1,128,
0,32,2,128,
0,32,3,128,
0,32,4,128,
0,32,5,128,
0,32,6,128,
0,32,0,128,
0,32,1,128,
0,32,2,128,
0,32,3,128,
0,32,4,128,
0,32,5,128,
0,32,6,128,
0,32,7,128,
};
static const unsigned char noise_instruments[] = {
240,0,0,0,0,0,0,0,
240,0,0,0,0,0,0,0,
240,0,0,0,0,0,0,0,
240,0,0,0,0,0,0,0,
240,0,0,0,0,0,0,0,
240,0,0,0,0,0,0,0,
240,0,0,0,0,0,0,0,
240,0,0,0,0,0,0,0,
240,0,0,0,0,0,0,0,
240,0,0,0,0,0,0,0,
240,0,0,0,0,0,0,0,
240,0,0,0,0,0,0,0,
240,0,0,0,0,0,0,0,
240,0,0,0,0,0,0,0,
240,0,0,0,0,0,0,0,
};

static const unsigned char waves[] = {
    165,215,201,225,188,154,118,49,12,186,222,96,27,202,3,147,
    240,225,210,195,180,165,150,135,120,105,90,75,60,45,30,15,
    253,236,219,202,185,168,151,134,121,104,87,70,53,36,19,2,
    222,254,220,186,154,169,135,119,136,135,101,86,84,50,16,18,
    171,205,239,237,203,160,18,62,220,186,188,222,254,220,50,16,
    255,238,221,204,187,170,153,136,119,102,85,68,51,34,17,0,
    255,255,255,255,255,255,255,255,0,0,0,0,0,0,0,0,
    121,188,222,239,255,238,220,185,117,67,33,16,0,17,35,69,
    215,180,202,23,225,54,30,192,85,187,220,17,72,162,154,177,
    19,11,228,110,106,144,185,138,220,203,28,100,7,30,55,141,
    150,52,6,21,45,235,151,52,96,69,183,109,39,12,78,25,
    71,141,170,235,157,238,101,114,92,93,165,173,26,10,51,6,
    235,85,88,189,237,8,153,219,194,67,65,57,194,36,48,55,
    168,39,131,4,25,45,157,23,148,36,92,105,148,181,83,29,
    204,171,201,132,57,199,84,156,203,26,94,58,69,181,167,187,
    50,54,74,57,206,14,155,13,174,166,68,104,4,218,141,206,
};

const hUGESong_t Intro = {7, &order_cnt, order1, order2, order3,order4, duty_instruments, wave_instruments, noise_instruments, NULL, waves};
